<?xml version="1.0" encoding="utf-8"?>
<!-- Generator: Adobe Illustrator 24.0.2, SVG Export Plug-In . SVG Version: 6.00 Build 0)  -->
<svg version="1.1" id="Camada_1" xmlns="http://www.w3.org/2000/svg" xmlns:xlink="http://www.w3.org/1999/xlink" x="0px" y="0px"
	 viewBox="0 0 320 320" style="enable-background:new 0 0 320 320;" xml:space="preserve">
<style type="text/css">
	.st0{fill:#321A4C;}
	.st1{fill:#660099;}
	.st2{fill:#8533AD;}
	.st3{fill:#8300AA;}
	.st4{fill:#FF9300;}
	.st5{fill:#FFA900;}
	.st6{fill:#EB3D7D;}
</style>
<path class="st0" d="M138,4.6H24.4c-11.1,0-20.2,9.1-20.2,20.2V295c0,11.1,9.1,20.2,20.2,20.2H138c11.1,0,20.2-9.1,20.2-20.2V24.8
	C158.2,13.7,149.1,4.6,138,4.6z"/>
<path class="st1" d="M145.3,4.6H31.8c-11.1,0-20.2,9.1-20.2,20.2V295c0,11.1,9.1,20.2,20.2,20.2h113.6c11.1,0,20.2-9.1,20.2-20.2
	V24.8C165.5,13.7,156.5,4.6,145.3,4.6z"/>
<path class="st2" d="M143.3,12.8h-20.8c-2.3,0-4.4,2-4.4,4.4V21c0,2.3-2,4.4-4.4,4.4H62.8c-2.3,0-4.4-2-4.4-4.4v-3.5
	c0-2.3-2-4.4-4.4-4.4H34.1c-8.8-0.3-15.5,6.4-15.5,14.3v265.8c0,7.9,6.7,14.3,15.2,14.3h109.5c8.2,0,15.2-6.4,15.2-14.3V27.5
	C158.2,19.6,151.5,12.8,143.3,12.8z"/>
<ellipse class="st3" cx="189.2" cy="164.8" rx="110.9" ry="102.6"/>
<circle class="st4" cx="194.3" cy="164.8" r="106.4"/>
<path class="st5" d="M194.3,58.4c-10.1,0-20.2,1.6-29.5,4.2l3.3,7c1.6,3.1,4.7,5.1,8.2,5.1h2.6l1.6,2.3c1.8,2.3,4.4,3.6,7,3.6h5.1
	c1.8,0,3.6-0.5,4.9-1.6l5.7-3.8c2.4-1.6,3.9-4.4,3.9-7.5v-0.8l3.8-1.8c2-0.8,3.3-2.4,4.2-4.4C208.5,59.2,201.4,58.4,194.3,58.4
	L194.3,58.4z M88.1,156l8.6,8.8v4.7c0,3.6,1.8,6.7,4.7,8.6l11.9,8l-2.3,6c-0.7,1.8-0.8,3.8-0.5,5.7l3.6,16.6c0.7,3.3,2.9,6,6,7.3
	l7,3.1l-4.9,18.8c7.5,6.8,16.1,12.6,25.4,17.3l6.7-11.3l8.6-2.3c3.8-0.8,6.7-3.9,7.5-7.8l1.6-6.8l15.7-19.4c1.6-1.8,2.3-4.2,2.3-6.4
	v-11.3c0-3.9-2.4-7.8-6.2-9.3l-14.6-6.7l-5.5-7c-2-2.4-4.9-3.8-8-3.8h-16.1l-15-6.7V161c0-2.6-1.1-5.3-3.1-7.3l-6.2-6.2v-0.1
	l8.6,4.4c1.3,0.7,3.1,1.1,4.7,1.1h3.1c5.7,0,10.1-4.7,10.1-10.1v-9.1l15.5-13l16.1-11.6c3.3-2.4,4.9-6.7,3.9-10.6l-0.6-5.3
	c-0.8-3.9-4.2-7.3-8.2-8l-9.3-1.6l-7.5-14.8c-0.2-0.5-0.5-0.7-0.7-1.1C116.4,83,91.5,116.4,88.1,156L88.1,156z M300.2,172.3l-2-2.9
	c0.7,0,1.6-0.2,2.3-0.7v-3.9c0-35-16.8-66.1-42.9-85.4c-2.6,1.3-4.7,3.8-5.3,6.7l-11.3,2c-2.4,0.2-4.9,1.3-6.7,3.1l-1.8,2v-14
	c0-4.2-3.6-7.8-7.8-7.8h-2c-3.8,0-6.8,2.6-7.8,6.2l-1.3,5.3c-0.7,0.7-1.8,1.6-2.9,2.6c-2.9,1.1-4.9,3.9-4.9,7.3v10.4
	c0,1.6,0.5,2.9,1.3,4.2c-2.3,1.8-3.6,4.4-3.6,7.5v5.3c0,5.5,4.4,9.9,9.9,9.9h6c2.4,0,4.7-0.8,6.4-2.4l5.3-4.4l6.2,0.2
	c-0.5,2.6,0.2,5.3,2,7.5c2,2.4,4.9,3.9,8,3.9h1.6c3.1,0,6.2-1.6,8-3.9l5.1-6.7c0,2.6-0.5,6.8-0.8,9.1l-8.8,2.3
	c-2.4,0.7-4.9,0.8-7.3,0.8c-5.5,0-15.5-0.2-21.9,0c-4.4,0-8.6,2.3-11.3,5.7l-5.5,7.3c-1.8,2.4-2.9,5.5-2.9,8.6v16.8
	c0,2,0.7,3.9,2,5.3l9.8,11.3c2.3,2.6,5.1,4.2,8.4,4.9l20.2,3.3l1.3,13.5c0.2,2,1.1,3.9,2.9,5.3l2.3,2l-1.1,10.9
	c-0.2,2.3,0.5,4.4,2,6.2l1.1,1.3v14.6C279.5,236.5,297.9,206.6,300.2,172.3L300.2,172.3z"/>
<path class="st6" d="M222,80.1l-1.1,4.7c-0.2,0.7-5.5,5.3-5.5,5.3c-0.8,0-1.8,0.7-1.8,1.8v10.4c0,0.8,0.7,1.8,1.8,1.8h6.2
	c0.8,0,1.8-0.7,1.8-1.8v-4.9c0-0.5,0.2-0.8,0.5-1.1l3.8-3.6c0.2-0.2,0.5-0.7,0.5-1.1V78.4c0-0.8-0.7-1.8-1.8-1.8h-2
	c-0.8,0-1.6,0.7-1.6,1.3L222,80.1z M194.3,58.4c-7.5,0-15,0.8-22.1,2.3l2.4,5.3c0.5,0.8,1.6,1.6,2.4,1.6h4.2c0.8,0,1.8,0.5,2.3,1.1
	l2.6,3.6c0.5,0.7,1.3,1.1,2.3,1.1h5.1c0.5,0,1.1-0.2,1.6-0.5l5.7-3.8c0.8-0.5,1.3-1.3,1.3-2.4v-2.9c0-1.1,0.7-2,1.6-2.4l3.9-1.8
	C203.1,58.9,198.7,58.4,194.3,58.4L194.3,58.4z M89.2,147.3c1.1,0,2,0.5,2.9,1.3l11.3,11.5c0.7,0.8,1.1,1.8,1.1,2.9v5.5
	c0,1.3,0.7,2.6,1.8,3.6l13.2,8.8c1.6,1.1,2.3,3.1,1.6,4.9l-2.9,7.3c-0.2,0.7-0.5,1.6-0.2,2.4l3.6,16.6c0.2,1.3,1.1,2.4,2.4,2.9
	l8.6,3.8c1.8,0.7,2.9,2.6,2.4,4.4l-6.4,25.7c4.7,3.6,9.5,6.8,14.6,9.5l8.2-13.5c0.7-0.8,1.6-1.8,2.6-2l9.3-2.4
	c1.6-0.5,2.6-1.6,3.1-3.1l1.6-7.3c0.2-0.7,0.5-1.1,0.8-1.8l16-19.9c0.7-0.7,0.8-1.6,0.8-2.6v-11.3c0-1.6-0.8-3.1-2.4-3.8l-15-6.7
	c-0.7-0.2-1.1-0.7-1.6-1.1l-6-7.3c-0.8-0.8-2-1.6-3.3-1.6h-16.6c-0.7,0-1.1-0.2-1.8-0.5l-16.1-7.3c-1.6-0.7-2.4-2.3-2.4-3.8V160
	c0-1.1-0.5-2.3-1.3-2.9l-6.8-6.8c-0.8-0.8-1.3-1.8-1.3-2.9v-4.2c0-3.1,3.3-5.1,6-3.8l11.5,5.7c0.7,0.2,1.1,0.5,1.8,0.5h3.1
	c2.3,0,4.2-1.8,4.2-4.2v-9.9c0-1.3,0.5-2.4,1.6-3.1l32.8-25.2c1.3-0.8,2-2.6,1.6-4.2l-0.8-5.7c-0.5-1.6-1.8-2.9-3.3-3.1l-10.2-1.8
	c-1.3-0.2-2.4-1.1-2.9-2.3L148,70.6c-0.2-0.5-0.5-0.7-0.7-0.8C117.1,84.3,94.9,113,89.2,147.3L89.2,147.3z M287.8,157.8
	c2.4-2.3,6.2-2.3,8.6,0l3.9,3.8c-1.1-31.2-15.5-59.1-37.8-77.9c-1.6,0.2-3.1,1.3-3.6,3.1l-0.2,1.3c-0.5,1.8-2,3.1-3.8,3.1l-12.4,2
	c-1.1,0-2,0.5-2.9,1.1l-14,14.4c-0.7,0.7-1.8,1.1-2.9,1.1h-8c-2.3,0-3.9,1.8-3.9,3.9v5.3c0,2.3,1.8,3.9,3.9,3.9h6
	c0.8,0,1.8-0.2,2.4-0.8l6-4.9c0.7-0.7,1.8-0.8,2.6-0.8l9.8,0.2c2.4,0,4.4,2.4,3.8,4.9l-0.5,1.6c-0.7,2.4,1.1,4.9,3.8,4.9h1.6
	c1.3,0,2.4-0.7,3.1-1.6l7-9.5c0.8-1.1,2-1.6,3.3-1.6l2,0.2c2,0.2,3.8,1.8,3.8,3.9v5.1c0,7-5.5,14.2-12.4,16
	c-2.9,0.7-5.7,1.1-8.8,1.1h-23.9c-2.4,0-4.9,1.1-6.4,3.3l-5.5,7.3c-1.1,1.3-1.6,3.1-1.6,4.9v17.3c0,0.5,0.2,1.1,0.5,1.3l9.8,11.3
	c1.3,1.6,2.9,2.4,4.9,2.6l23,3.9c0.8,0.2,1.8,0.8,1.8,2l1.6,16.3c0,0.7,0.2,1.1,0.7,1.6l3.8,3.3c0.5,0.5,0.8,1.1,0.7,2l1.1,30.5
	c13-9.9,23.6-22.8,31-37.6v-5.7c0-0.5,0.2-0.8,0.5-1.3l5.3-7c1.6-4.4,2.6-9.1,3.3-13.7l-14.2-20.5c-0.5-0.7-0.7-1.8,0-2.4
	C285.2,160.1,286.5,158.8,287.8,157.8L287.8,157.8z"/>
</svg>
