<?xml version="1.0" encoding="utf-8"?>
<!-- Generator: Adobe Illustrator 25.0.0, SVG Export Plug-In . SVG Version: 6.00 Build 0)  -->
<svg version="1.1" id="Camada_1" xmlns="http://www.w3.org/2000/svg" xmlns:xlink="http://www.w3.org/1999/xlink" x="0px" y="0px"
	 viewBox="0 0 320 320" style="enable-background:new 0 0 320 320;" xml:space="preserve">
<style type="text/css">
	.st0{fill:#660099;}
	.st1{fill:#FAB538;}
	.st2{fill:#321A4C;}
	.st3{fill:none;stroke:#FAB538;stroke-width:2;stroke-miterlimit:10;}
	.st4{fill:#EB3D7D;}
	.st5{fill:none;stroke:#EB3D7D;stroke-width:2;stroke-miterlimit:10;}
	.st6{fill:#321A4C;stroke:#321A4C;stroke-width:3;stroke-miterlimit:10;}
	.st7{fill:#EB3D7D;stroke:#EB3D7D;stroke-width:3;stroke-miterlimit:10;}
</style>
<g>
	<circle class="st0" cx="160" cy="163.7" r="154.7"/>
	<g>
		<path class="st5" d="M196.3,203.6c-1.6,6.3-5.3,6.5-6.2,9.8c-0.9,3.3-0.6,5.9-2.4,8.5c-1.8,2.6-2.7,4.2-0.3,6.5
			c2.4,2.3,4.7,2.6,6.2-2.3s6.5-14.7,5.9-18.6C199,203.6,196.9,201.3,196.3,203.6z"/>
		<path class="st5" d="M196.9,161.6c-4.2-2.2-1.6-3.9-4.6-5.4s-3.8,2.4-8.8-8.2c-5.1-10.6-11.1-26.2-13.2-27.1
			c-2.1-0.9-4.4,1.4-8.6,0.3c-4.2-1.2-10.5-5.9-12.2-2.6c-1.7,3.3-3.4,4-7.3,3.2c-3.9-0.8-9.6-3.6-9.7-6.9c-0.1-3.3-4.3-4.8-7.8-4
			s-20.5,2.9-22.2,2.7c-5-0.8-6.9,6.1-7.7,10.4c-0.8,4.3-5.2,5.1-8.3,9.7c-3.1,4.7-5.4,9-4.1,12.9c1.3,3.9,0.3,10.5,1,14
			s5.3,9,9.9,13.4c4.6,4.4,6.8,0.5,11.6,1.6c4.8,1.2,3.6,2.8,9.2-0.3c5.5-3.1,7.9-4.2,9.7-2.6c1.8,1.6,1.3,4.9,6.3,4.1
			c5-0.8,0,9.2,1.9,13.4c1.9,4.2,3.9,0.9,5.4,11.3c1.5,10.4-2,14.1-0.6,19c1.3,4.9,3.7,5.1,6.3,12.6c2.6,7.4,1.7,7.1,4.5,12.3
			c2.8,5.1-1.2,8.2,4.1,9.7s19.1-5.5,22.5-10.1c3.4-4.7,1.6-6.9,5-10.3c3.5-3.4-1.1-7.2,1.7-12.8c2.8-5.6,7-13.3,6.8-19.8
			s-1.1-5.5,0.9-9.5s8.6-8.8,12.6-15.7c3.9-7,7.7-11.3,6.9-15.6C207.4,157.1,201.1,163.8,196.9,161.6z"/>
		<path class="st5" d="M311.3,196.3c0.2-0.8,0.2-1.1,0.4-1.8c0.1-0.4,0.2-1,0.3-1.4c-6.9-0.7-15-1.8-15.2-4.7
			c-0.3-3.9,4.4-0.3,4.4-2.3s-2.1-2.9-5-4.6c-3-1.6-2.7-2.9-5-6.5c-2.5-3.5-12.8-8.7-12.8-7.1c0,6.2,5.9,5.2,8.3,11.4
			c2.4,6.2,2.1,10.8,8,13.4c5.1,2.2,10.8,2.7,16.6,4C311.2,196.7,311.2,196.3,311.3,196.3z"/>
		<path class="st5" d="M312.7,185c0.8-5.8,1.8-10.9,2-16.7c0.2-6.2,0-12-0.5-18c0-0.1,0-0.1,0-0.2c-2.7-2.5-4.4-5.7-4-8.3
			c0.3-2,1-3.2,2.5-3.8c-0.1-1.1-0.6-2.3-0.6-3.5c-2.1-10.7-3.9-18.4-7.4-27.1c-4.3-10.8-9.8-20.7-16.4-30.4
			c-6.2-9.1-14.2-17.9-22-25.7c-7-7.1-13.6-10.9-24.8-18.4c-4.2-0.1-6.5,0.1-8.5,1.4c-4.1,2.6-8.9,3.6-8.9,6.9s4.7,5.6,1.5,6.9
			c-3.3,1.3-4.1,4.6-7.1,2.9c-3-1.6,2.7-2.6,2.4-5.9c-0.3-3.3,0.9-5.6-3.6-6.5c-4.4-1-8.9,0.3-8.9,3.3c2.5,4.7-2.9,7.3-4.2,15.9
			c-1.3,8.6,6.1,8.6,6.1,13.9s-6.7,0.4-11.5,1.9c-4.8,1.4,0.2,6.9-2,10.7s-2.6,8.5-8.3,7.5s-5.7-10.1-10.4-6.2
			c-4.4,3.5-9.1,0.8-12.6-1l-1,5.4c-0.1,2.7-0.3,5.9-1.9,7.6c-0.3,0,0.6,1.8,0.3,1.7c-0.6,2.1-1.5,4.4-0.8,5.6
			c1.2,2.3,2.7,4.2,5.6,3.6c3-0.7,9.5-5.2,10.1-0.7c0.6,4.6-3,8.8-0.6,14.1c2.4,5.2,8.3,15.4,12.4,22.9s3.3,10.8,6.5,11.1
			c3.3,0.3,12.4-3.9,16.9-7.5c4.4-3.6,11.5-6.9,9.8-10.8c-1.8-3.9-3-1.6-4.7-4.9c-1.8-3.3-4.1,1.3-7.1,0.3s-9.2-6.5-10.4-9.2
			c-1.2-2.6,1.2-5.9,6.5-2c5.3,3.9,8.9,6.9,16.6,7.2c7.7,0.3,16.9,1.6,18.1,5.6c1.2,3.9,2.1,5.9,4.1,4.2c2.1-1.6,3.3-1.3,3.8,2.9
			c0.6,4.2,7.4,19.6,9.2,22.2c1.8,2.6,2.7,4.9,5,6.9c2.3,2,4.1-2.9,2.4-6.5c-1.7-3.6-2.1-4.9-1.8-9.2c0.3-4.2-0.3-4.9,2.1-6.9
			s7.1-4.9,10.1-9.5c3-4.6,4.7-4.2,6.2-2.6c1.5,1.6,4.4,5.9,4.7,9.2c0.3,3.3,2.4,5.9,3.8,5.6c1.5-0.3,3.6-1,5.3,2.9
			c1.7,3.8,0.1,9.9,1.8,12.4c0.1,0.2,0.3,0.4,0.3,0.7c1.4,6.2,1.1,1,2.3,3.5c0,0,0.6,3.9,1.8,9.2c1.2,5.2,0,5.6,3.8,5.6
			c2.2,0,2.9,0.6,5.7,1.9C312.3,187,312.6,185.6,312.7,185z M300.8,165.3c-0.4-0.5-0.5-1.2-0.4-1.8c0.2-1.6,0.6-3.5,1.5-5
			c2.4-3.9,5.6,4.2,7.7,5.6c0.6,0.3,1.3,0.4,2,0.4c1.3-0.1,2.3,1.1,2.2,2.5c-0.3,3.3-2.4,2.9-5.6,4.6
			C305.2,173.1,303.4,169,300.8,165.3z"/>
	</g>
	<path class="st6" d="M139.1,93.3c1.1,0,2.5,0.6,4.1,1.4c0.7,0.3,1.4,0.7,2.1,0.9c3.4,1.4,4.8,5.6,5.9,9c0.2,0.6,0.4,1.2,0.6,1.7
		c1,2.9,1.9,4.5,2.5,4.6c0,0,0.2,0,0.3-0.1c0.8-0.6,0.8-0.6,0.6-1.8c-0.1-0.7-0.2-1.7-0.1-3c0.1-1.5,0.8-2.8,1.9-3.7
		c1.7-1.4,4.1-1.7,6-1.6c0.9-1.5,1-4.2,1.1-6.4c0.1-2.8,0.2-5,1.8-5.9c0.8-0.5,1.9-0.4,3,0.2c3.8,2.1,4,2.2,8.3-1.3
		c1.2-1,2.4-1.4,3.6-1.2c1.8,0.3,2.9,1.9,3.9,3.4c1.1,1.7,2.2,3.4,4.2,3.7c3.5,0.6,5-1.7,7.1-5.7c0.3-0.6,0.6-1.2,0.9-1.7
		c0.7-1.2,0.3-2.6-0.1-4.1c-0.5-2-1.4-5.4,2.7-6.6c2.3-0.7,4.7-0.2,6.6,0.2c0.9,0.2,2.3,0.5,2.7,0.3c0,0,0.2-0.2,0.2-1
		c0-1.5-0.8-2.4-2.3-3.8c-2.1-2-4.7-4.6-3.8-10.3c0.6-4.1,2.1-6.9,3.3-9.2c0.8-1.5,1.3-2.6,1.5-3.5c-0.7,0.2-1.5,0.2-2.2,0.2
		c-1.6,0.1-3.6,0.2-5.7,1.1c-2.5,1.1-6.1,1.3-9.5,1.5c-3.7,0.2-8,0.5-9.2,2c-2.7,3.2-6.7,8.1-11.3,4.5c-1-0.8-2.1-1.4-2.8-1.9
		c-1-0.6-2.1-1.2-1.7-2.4c0.4-1.3,1.6-1.3,3.7-1.3c2,0,3.3-0.2,4.2-0.4c-3.5-2.1-16-6.8-22.1-4.8c-3.8,1.2-6.8,3.8-10,6.5
		c-2.3,2-4.8,4.1-7.5,5.5c-5.3,2.8-6,4.6-6.1,5.2c0,0.2-0.1,0.8,1,1.8c0.8,0.7,1.3,0.5,2.7-0.4c0.9-0.6,2-1.3,3.2-0.8
		c1.2,0.4,1.7,1.6,2,2.5c1.3,3.9,2.1,4.5,2.4,4.6c0.1,0,0.4-0.1,0.4-0.2c1.9-1.2,3.1-3,3.5-4.1c0.2-0.5,0.1-1.3,0-2.3
		s-0.2-2.3-0.1-3.9c0.4-3.5,3.4-6.2,7.6-6.6c1.1-0.1,1.9,0.2,2.4,0.8c0.8,1.1,0.3,2.4-0.1,3.6c-0.4,1.1-0.9,2.4-0.5,3.3
		c0.5,1,2,1.2,3.9,1.3c1.4,0.1,2.5,0.2,3.3,1c0.4,0.4,0.6,1,0.4,1.6c-0.2,1.1-1.2,1.5-2.4,2c-0.5,0.2-1.5,0.6-1.8,1
		c1.4,4-3.6,6.7-5.8,7.9c-2,1.1-4.8,0.5-8-0.2c-3.6-0.8-7.6-1.6-10.3,0.1c-1.7,1.1-3.5,2.4-5.3,3.6c-4.2,3-8.6,6-11.9,7
		c-0.7,0.2-1.8,0.5-2.5,0.8c0.2,0.3,0.6,0.7,1.3,1.2c2.5,2.2,3.6,5.6,2.5,7.9c-0.4,0.8-1.6,2.6-4.9,2.2c-5.7-0.8-7.5-0.6-8-0.4
		c-0.8,1.8-1,3.8-1.2,5.7c-0.1,1.1-0.2,2.2-0.4,3.3c-0.1,0.4,0,0.5,0.1,0.6c0.3,0.3,1.3,0.9,5,0.9c2.6,0,7.2-1.6,8.4-4.6
		c1.1-2.6,3-2.9,4.2-3c1-0.2,1.2-0.2,1.4-1c0.7-2.8,2.2-4.8,4.1-5.4c1-0.3,2-0.1,3,0.4c0.2-0.6,0.7-1.1,1.4-1.4
		c1.2-0.4,2.4,0.3,2.7,0.6c1.3,0.9,2.3,2,3.3,3.2c1.4,1.7,2.8,3.3,5.3,4.2c3,1,3.4,3.1,3.3,4.5c1.7-0.8,2.9-1.9,3-2.4
		c-0.4-0.4-1.4-1-2.4-1.5c-2.4-1.4-5.5-3.2-6.2-5.9c-0.4-1.3-0.2-2.3,0.6-3C138.1,93.5,138.6,93.3,139.1,93.3L139.1,93.3z"/>
	<path class="st2" d="M101.6,74.8c-1,4-0.6,6,3.1,4.7c3.7-1.3-1.7,2.8,1.4,3.5c3.1,0.6,6.3,0,8.5-2.5c2.3-2.5-0.3,0-1.4-5.7
		c-1.1-5.7-0.9-10.4-4-8.2c-3.1,2.2-2.6,4.1-4,6S102.1,72.6,101.6,74.8z"/>
	<path class="st2" d="M87,53.7c5.4-0.5,8.5-1.6,11.1,0s-2.8,7.2-8,6.9C85.1,60.3,83.6,54,87,53.7z"/>
	<g>
		<path class="st7" d="M139.1,90.3c1.1,0,2.5,0.6,4.1,1.4c0.7,0.3,1.4,0.7,2.1,0.9c3.4,1.4,4.8,5.6,5.9,9c0.2,0.6,0.4,1.2,0.6,1.7
			c1,2.9,1.9,4.5,2.5,4.6c0,0,0.2,0,0.3-0.1c0.8-0.6,0.8-0.6,0.6-1.8c-0.1-0.7-0.2-1.7-0.1-3c0.1-1.5,0.8-2.8,1.9-3.7
			c1.7-1.4,4.1-1.7,6-1.6c0.9-1.5,1-4.2,1.1-6.4c0.1-2.8,0.2-5,1.8-5.9c0.8-0.5,1.9-0.4,3,0.2c3.8,2.1,4,2.2,8.3-1.3
			c1.2-1,2.4-1.4,3.6-1.2c1.8,0.3,2.9,1.9,3.9,3.4c1.1,1.7,2.2,3.4,4.2,3.7c3.5,0.6,5-1.7,7.1-5.7c0.3-0.6,0.6-1.2,0.9-1.7
			c0.7-1.2,0.3-2.6-0.1-4.1c-0.5-2-1.4-5.4,2.7-6.6c2.3-0.7,4.7-0.2,6.6,0.2c0.9,0.2,2.3,0.5,2.7,0.3c0,0,0.2-0.2,0.2-1
			c0-1.5-0.8-2.4-2.3-3.8c-2.1-2-4.7-4.6-3.8-10.3c0.6-4.1,2.1-6.9,3.3-9.2c0.8-1.5,1.3-2.6,1.5-3.5c-0.7,0.2-1.5,0.2-2.2,0.2
			c-1.6,0.1-3.6,0.2-5.7,1.1c-2.5,1.1-6.1,1.3-9.5,1.5c-3.7,0.2-8,0.5-9.2,2c-2.7,3.2-6.7,8.1-11.3,4.5c-1-0.8-2.1-1.4-2.8-1.9
			c-1-0.6-2.1-1.2-1.7-2.4c0.4-1.3,1.6-1.3,3.7-1.3c2,0,3.3-0.2,4.2-0.4c-3.5-2.1-16-6.8-22.1-4.8c-3.8,1.2-6.8,3.8-10,6.5
			c-2.3,2-4.8,4.1-7.5,5.5c-5.3,2.8-6,4.6-6.1,5.2c0,0.2-0.1,0.8,1,1.8c0.8,0.7,1.3,0.5,2.7-0.4c0.9-0.6,2-1.3,3.2-0.8
			c1.2,0.4,1.7,1.6,2,2.5c1.3,3.9,2.1,4.5,2.4,4.6c0.1,0,0.4-0.1,0.4-0.2c1.9-1.2,3.1-3,3.5-4.1c0.2-0.5,0.1-1.3,0-2.3
			s-0.2-2.3-0.1-3.9c0.4-3.5,3.4-6.2,7.6-6.6c1.1-0.1,1.9,0.2,2.4,0.8c0.8,1.1,0.3,2.4-0.1,3.6c-0.4,1.1-0.9,2.4-0.5,3.3
			c0.5,1,2,1.2,3.9,1.3c1.4,0.1,2.5,0.2,3.3,1c0.4,0.4,0.6,1,0.4,1.6c-0.2,1.1-1.2,1.5-2.4,2c-0.5,0.2-1.5,0.6-1.8,1
			c1.4,4-3.6,6.7-5.8,7.9c-2,1.1-4.8,0.5-8-0.2c-3.6-0.8-7.6-1.6-10.3,0.1c-1.7,1.1-3.5,2.4-5.3,3.6c-4.2,3-8.6,6-11.9,7
			c-0.7,0.2-1.8,0.5-2.5,0.8c0.2,0.3,0.6,0.7,1.3,1.2c2.5,2.2,3.6,5.6,2.5,7.9c-0.4,0.8-1.6,2.6-4.9,2.2c-5.7-0.8-7.5-0.6-8-0.4
			c-0.8,1.8-1,3.8-1.2,5.7c-0.1,1.1-0.2,2.2-0.4,3.3c-0.1,0.4,0,0.5,0.1,0.6c0.3,0.3,1.3,0.9,5,0.9c2.6,0,7.2-1.6,8.4-4.6
			c1.1-2.6,3-2.9,4.2-3c1-0.2,1.2-0.2,1.4-1c0.7-2.8,2.2-4.8,4.1-5.4c1-0.3,2-0.1,3,0.4c0.2-0.6,0.7-1.1,1.4-1.4
			c1.2-0.4,2.4,0.3,2.7,0.6c1.3,0.9,2.3,2,3.3,3.2c1.4,1.7,2.8,3.3,5.3,4.2c3,1,3.4,3.1,3.3,4.5c1.7-0.8,2.9-1.9,3-2.4
			c-0.4-0.4-1.4-1-2.4-1.5c-2.4-1.4-5.5-3.2-6.2-5.9c-0.4-1.3-0.2-2.3,0.6-3C138.1,90.5,138.6,90.3,139.1,90.3L139.1,90.3z"/>
		<path class="st4" d="M87,51.7c5.4-0.5,8.5-1.6,11.1,0s-2.8,7.2-8,6.9C85.1,58.3,83.6,52,87,51.7z"/>
		<path class="st4" d="M101.6,71.8c-1,4-0.6,6,3.1,4.7c3.7-1.3-1.7,2.8,1.4,3.5c3.1,0.6,6.3,0,8.5-2.5c2.3-2.5-0.3,0-1.4-5.7
			c-1.1-5.7-0.9-10.4-4-8.2c-3.1,2.2-2.6,4.1-4,6S102.1,69.6,101.6,71.8z"/>
	</g>
	<g>
		<path class="st1" d="M197.1,11.1c-11.9-11.9-31.2-11.9-43.1,0s-11.9,31.2,0,43.1l17.4,17.4c2.3,2.3,6,2.3,8.3,0l17.4-17.4
			C209,42.3,209,23,197.1,11.1z"/>
		<circle class="st4" cx="175.6" cy="33.4" r="13.7"/>
	</g>
</g>
</svg>
